<svg id="Calque_1" data-name="Calque 1" xmlns="http://www.w3.org/2000/svg" viewBox="0 0 651.52 651.63"><defs><style>.cls-1{fill:#94ad23;}.cls-1,.cls-2{stroke:#fff;stroke-miterlimit:10;stroke-width:8px;}.cls-2{fill:#6f8529;}.cls-3{fill:#5b6f27;}</style></defs><path class="cls-1" d="M433.18,370.8h0a150.63,150.63,0,0,0-62.5,62.5,150.63,150.63,0,0,0-88.2,0,150.63,150.63,0,0,0-62.5-62.5h0a150.6,150.6,0,0,0,0-88.19,150.63,150.63,0,0,0,62.5-62.5,150.85,150.85,0,0,0,88.2,0,150.63,150.63,0,0,0,62.5,62.5A150.6,150.6,0,0,0,433.18,370.8Z"/><path class="cls-2" d="M370.68,220.11a150.85,150.85,0,0,1-88.2,0A149,149,0,0,0,297.94,174a151.59,151.59,0,0,0,57.28,0A149,149,0,0,0,370.68,220.11Z"/><path class="cls-2" d="M299.85,150a150.52,150.52,0,0,1-1.91,24,148.74,148.74,0,0,1-40.61-14.18A150.35,150.35,0,0,0,236.68,27.65,149.82,149.82,0,0,1,299.85,150Z"/><path class="cls-2" d="M297.94,174a149,149,0,0,1-15.46,46.14,148.9,148.9,0,0,1-43.77-21.84,149.43,149.43,0,0,0,18.62-38.48A148.74,148.74,0,0,0,297.94,174Z"/><path class="cls-2" d="M282.48,220.11a150.63,150.63,0,0,1-62.5,62.5,148.55,148.55,0,0,0-21.82-43.79,150.73,150.73,0,0,0,40.55-40.55A148.9,148.9,0,0,0,282.48,220.11Z"/><path class="cls-2" d="M173.85,298.07a150.26,150.26,0,0,1-146.36-61.3,150.34,150.34,0,0,0,132.18,20.68A148.92,148.92,0,0,1,173.85,298.07Z"/><path class="cls-2" d="M220,282.61a149,149,0,0,1-46.13,15.46,148.92,148.92,0,0,0-14.18-40.62,149.19,149.19,0,0,0,38.49-18.63A148.55,148.55,0,0,1,220,282.61Z"/><path class="cls-2" d="M220,370.8a149,149,0,0,0-46.13-15.46,151.54,151.54,0,0,0,0-57.27A149,149,0,0,0,220,282.61,150.6,150.6,0,0,1,220,370.8Z"/><path class="cls-2" d="M173.85,355.34A148.85,148.85,0,0,1,159.67,396,150.31,150.31,0,0,0,27.49,416.64a150.26,150.26,0,0,1,146.36-61.3Z"/><path class="cls-2" d="M220,370.8h0a149,149,0,0,1-21.81,43.77A149.58,149.58,0,0,0,159.67,396a148.85,148.85,0,0,0,14.18-40.61A149,149,0,0,1,220,370.8Z"/><path class="cls-2" d="M282.48,433.31a148.59,148.59,0,0,0-43.78,21.81,151,151,0,0,0-40.53-40.54A149,149,0,0,0,220,370.81,150.63,150.63,0,0,1,282.48,433.31Z"/><path class="cls-2" d="M299.85,503.43a149.8,149.8,0,0,1-63.17,122.32,150.35,150.35,0,0,0,20.65-132.14,148.74,148.74,0,0,1,40.61-14.18A150.64,150.64,0,0,1,299.85,503.43Z"/><path class="cls-2" d="M297.94,479.43a148.74,148.74,0,0,0-40.61,14.18,149.36,149.36,0,0,0-18.63-38.49,148.59,148.59,0,0,1,43.78-21.81A148.71,148.71,0,0,1,297.94,479.43Z"/><path class="cls-2" d="M370.68,433.31a148.71,148.71,0,0,0-15.46,46.12,151.59,151.59,0,0,0-57.28,0,148.71,148.71,0,0,0-15.46-46.12A150.63,150.63,0,0,1,370.68,433.31Z"/><path class="cls-2" d="M416.48,625.75a150.24,150.24,0,0,1-61.26-146.32,148.74,148.74,0,0,1,40.61,14.18,150.35,150.35,0,0,0,20.65,132.14Z"/><path class="cls-2" d="M414.46,455.12a149.36,149.36,0,0,0-18.63,38.49,148.74,148.74,0,0,0-40.61-14.18,148.71,148.71,0,0,1,15.46-46.12A148.59,148.59,0,0,1,414.46,455.12Z"/><path class="cls-2" d="M455,414.58a151,151,0,0,0-40.53,40.54,148.59,148.59,0,0,0-43.78-21.81,150.63,150.63,0,0,1,62.5-62.5A149,149,0,0,0,455,414.58Z"/><path class="cls-2" d="M493.49,396A149.58,149.58,0,0,0,455,414.58a149,149,0,0,1-21.81-43.77h0a149,149,0,0,1,46.13-15.46A148.85,148.85,0,0,0,493.49,396Z"/><path class="cls-2" d="M476.58,326.7a151,151,0,0,0,2.73,28.64,149,149,0,0,0-46.13,15.46,150.6,150.6,0,0,1,0-88.19,149,149,0,0,0,46.13,15.46A150.81,150.81,0,0,0,476.58,326.7Z"/><path class="cls-2" d="M625.67,416.64A150.31,150.31,0,0,0,493.49,396a148.85,148.85,0,0,1-14.18-40.61,150.26,150.26,0,0,1,146.36,61.3Z"/><path class="cls-2" d="M625.67,236.77a150.26,150.26,0,0,1-146.36,61.3,148.92,148.92,0,0,1,14.18-40.62,150.34,150.34,0,0,0,132.18-20.68Z"/><path class="cls-2" d="M493.49,257.45a148.92,148.92,0,0,0-14.18,40.62,149,149,0,0,1-46.13-15.46A148.55,148.55,0,0,1,455,238.82,149.19,149.19,0,0,0,493.49,257.45Z"/><path class="cls-2" d="M455,238.82a148.55,148.55,0,0,0-21.82,43.79,150.63,150.63,0,0,1-62.5-62.5,148.9,148.9,0,0,0,43.77-21.84A150.73,150.73,0,0,0,455,238.82Z"/><path class="cls-2" d="M414.45,198.27a148.9,148.9,0,0,1-43.77,21.84A149,149,0,0,1,355.22,174a148.74,148.74,0,0,0,40.61-14.18A149.43,149.43,0,0,0,414.45,198.27Z"/><path class="cls-2" d="M388.85,114.43a150.06,150.06,0,0,0,7,45.36A148.74,148.74,0,0,1,355.22,174,150.24,150.24,0,0,1,416.48,27.65,149.32,149.32,0,0,0,388.85,114.43Z"/><path class="cls-2" d="M474.51,51.71a150.17,150.17,0,0,1-78.68,108.08A150.35,150.35,0,0,1,416.48,27.65h0A149.48,149.48,0,0,1,459.21,6.57,149.23,149.23,0,0,1,474.51,51.71Z"/><path class="cls-2" d="M476.58,76.7a149.76,149.76,0,0,1-62.13,121.57,149.43,149.43,0,0,1-18.62-38.48A150.17,150.17,0,0,0,474.51,51.71,151.39,151.39,0,0,1,476.58,76.7Z"/><path class="cls-2" d="M601.52,178.78a150.21,150.21,0,0,0-108,78.67A149.19,149.19,0,0,1,455,238.82a150.19,150.19,0,0,1,146.52-60Z"/><path class="cls-2" d="M646.72,194.07a149.5,149.5,0,0,1-21,42.69h0a150.34,150.34,0,0,1-132.18,20.68,150.21,150.21,0,0,1,108-78.67A149.6,149.6,0,0,1,646.72,194.07Z"/><path class="cls-2" d="M159.67,257.45A150.34,150.34,0,0,1,27.49,236.77h0a149.5,149.5,0,0,1-21-42.69,149.6,149.6,0,0,1,45.2-15.29A150.21,150.21,0,0,1,159.67,257.45Z"/><path class="cls-2" d="M198.16,238.82a149.19,149.19,0,0,1-38.49,18.63,150.21,150.21,0,0,0-108-78.67,150.19,150.19,0,0,1,146.52,60Z"/><path class="cls-2" d="M257.33,159.79a149.43,149.43,0,0,1-18.62,38.48A149.76,149.76,0,0,1,176.58,76.7a151.39,151.39,0,0,1,2.07-25A150.17,150.17,0,0,0,257.33,159.79Z"/><path class="cls-2" d="M264.31,114.43a150.06,150.06,0,0,1-7,45.36A150.17,150.17,0,0,1,178.65,51.71,149.23,149.23,0,0,1,194,6.57a149.48,149.48,0,0,1,42.72,21.07h0A149.32,149.32,0,0,1,264.31,114.43Z"/><path class="cls-2" d="M198.17,414.58A150.24,150.24,0,0,1,51.59,474.63,150.17,150.17,0,0,0,159.67,396,149.58,149.58,0,0,1,198.17,414.58Z"/><path class="cls-2" d="M159.67,396A150.17,150.17,0,0,1,51.59,474.63,149.68,149.68,0,0,1,6.44,459.34a149.5,149.5,0,0,1,21-42.69h0A150.31,150.31,0,0,1,159.67,396Z"/><path class="cls-2" d="M264.31,539a149.32,149.32,0,0,1-27.63,86.78h0a149.18,149.18,0,0,1-42.73,21.08,149.37,149.37,0,0,1-15.28-45.18,150.17,150.17,0,0,1,78.67-108A150.06,150.06,0,0,1,264.31,539Z"/><path class="cls-2" d="M257.33,493.61a150.17,150.17,0,0,0-78.67,108,150.2,150.2,0,0,1,60-146.54A149.36,149.36,0,0,1,257.33,493.61Z"/><path class="cls-2" d="M474.5,601.66a149.37,149.37,0,0,1-15.28,45.18,149.18,149.18,0,0,1-42.73-21.08h0a150.35,150.35,0,0,1-20.65-132.14A150.17,150.17,0,0,1,474.5,601.66Z"/><path class="cls-2" d="M474.5,601.66a150.17,150.17,0,0,0-78.67-108,149.36,149.36,0,0,1,18.63-38.49,150.2,150.2,0,0,1,60,146.54Z"/><path class="cls-2" d="M601.57,474.63A150.24,150.24,0,0,1,455,414.58,149.58,149.58,0,0,1,493.49,396,150.17,150.17,0,0,0,601.57,474.63Z"/><path class="cls-2" d="M646.72,459.34a149.68,149.68,0,0,1-45.15,15.29A150.17,150.17,0,0,1,493.49,396a150.31,150.31,0,0,1,132.18,20.69h0A149.5,149.5,0,0,1,646.72,459.34Z"/><circle class="cls-3" cx="326.58" cy="25" r="25"/><circle class="cls-3" cx="537.46" cy="537.62" r="25"/><circle class="cls-3" cx="25" cy="325" r="25"/><circle class="cls-3" cx="625" cy="325" r="25"/><circle class="cls-3" cx="325" cy="625" r="25"/><circle class="cls-3" cx="111.67" cy="537.62" r="25"/><circle class="cls-3" cx="111.67" cy="116.5" r="25"/><circle class="cls-3" cx="537.46" cy="107.44" r="25"/></svg>